<?xml version="1.0" encoding="utf-8"?>
<!-- Generator: Adobe Illustrator 16.0.0, SVG Export Plug-In . SVG Version: 6.00 Build 0)  -->
<!DOCTYPE svg PUBLIC "-//W3C//DTD SVG 1.1//EN" "http://www.w3.org/Graphics/SVG/1.1/DTD/svg11.dtd">
<svg version="1.1" id="Layer_1" xmlns="http://www.w3.org/2000/svg" xmlns:xlink="http://www.w3.org/1999/xlink" x="0px" y="0px"
	 width="800px" height="350px" viewBox="-178 -73 800 350" enable-background="new -178 -73 800 350" xml:space="preserve">
<title>Artboard</title>
<desc>Created with Sketch.</desc>
<g id="Page-1">
	<g id="Artboard">
		<g id="Group" transform="translate(1.000000, 3.000000)">
			<path id="path40" fill="#FFD10D" d="M-123.982,86.431c0-33.239,18.035-50.492,40.698-50.492
				c22.296,0,38.623,13.098,38.623,47.927c0,35.804-17.706,47.929-38.623,47.929C-106.346,131.795-123.982,117.594-123.982,86.431
				 M7.595,95.297C7.595,34.304-20.11-7.43-83.027-7.43c-61.497,0-93.751,41.987-93.751,93.104c0,47.343,29.67,91.512,83.415,91.512
				c27.904,0,44.092-11.563,48.06-14.95v23.533c0,27.198-10.852,45.33-39.016,45.33c-13.556,0-23.578-3.59-32.881-7.935
				c-8.259-3.855-14.41-8.311-22.671-8.311c-20.929,0-26.72,25.176-26.615,25.309c15.645,19.77,51.678,34.276,81.911,34.276
				c59.427,0,92.178-33.771,92.178-100.755C7.601,173.684,7.595,106.222,7.595,95.297"/>
			<path id="path24" fill="#FFD10D" d="M89.575,76.043c0,0.063,12.016,4.363,43.537,4.363c21.706,0,33.667-8.328,33.667-21.361
				c0-11.017-10.799-23.039-33.537-23.039C104.561,36.006,89.575,57.345,89.575,76.043 M209.68,163.405
				c-9.339,12.877-46.206,31.437-79.797,31.437c-59.689,0-94.184-41.109-94.184-96.702c0-72.901,48.837-105.572,95.551-105.572
				c49.111,0,82.758,26.25,82.758,66.288c0,28.14-15.912,55.332-81.893,55.332c-30.721,0-44.134-3.797-44.134-3.776
				c0,34.941,28.724,41.428,45.389,41.428c11.943,0,21.239-2.754,29.068-5.92c7.499-3.03,14.284-6.481,23.449-6.481
				C203.329,139.438,209.74,163.324,209.68,163.405"/>
			<path id="path28" fill="#FFD10D" d="M364.447,162.102c0,19.891-18.29,33.017-43.383,33.017
				c-50.872,0-77.438-35.598-77.438-89.929l0.433-132.885c0-16.891,4.62-28.989,13.861-36.314
				c9.243-7.325,22.683-10.986,40.3-10.986c-0.286,1.978-0.583,4.652-0.861,8.024c-0.297,3.101-0.509,7.25-0.652,12.463
				c-0.153,5.211-0.223,12.033-0.223,20.478l0.435,26.599h58.063c0,12.669-3.613,22.807-10.834,30.411
				c-7.218,7.594-17.474,11.398-30.759,11.398h-16.471l-0.435,59.967c0,11.82,1.509,23.092,3.677,31.119
				c2.165,8.021,13.823,26.692,36.563,26.692c13.437,0,21.574-1.89,26.063-3.023C363.479,151.411,364.447,155.051,364.447,162.102z"
				/>
			<path id="path32" fill="#FFD10D" d="M477.154,152.813c-4.261,1.138-7.232,1.891-13.046,1.891
				c-11.24,0-18.455-7.965-18.455-21.057v-95.89c0-8.447,0.066-15.266,0.219-20.479c0.137-5.212,0.356-9.361,0.646-12.46
				c0.287-3.374,0.575-6.046,0.868-8.027c-17.913,0-31.489,3.663-40.729,10.986c-9.251,7.325-13.865,19.424-13.865,36.316
				l-0.439,97.673c0,34.94,22.983,54.204,51.987,53.076c18.269-0.709,34.109-9.196,34.109-27.957
				C478.448,159.048,477.154,152.813,477.154,152.813 M444.687-34.414c-6.222,10.108-14.82,15.155-25.771,15.155
				c-4.738,0-9.18-1.007-13.33-3.029c-4.441-2.605-7.854-5.986-10.224-10.182c-2.367-4.176-3.547-8.727-3.547-13.631
				c0-5.48,1.326-10.394,3.999-14.724c2.666-4.904,6.363-8.728,11.108-11.478c4.728-2.738,9.614-4.109,14.656-4.109
				c4.443,0,8.74,1.149,12.887,3.458c4.738,2.319,8.288,5.633,10.665,9.964c2.37,4.33,3.55,8.948,3.55,13.853
				C448.68-43.938,447.352-39.03,444.687-34.414"/>
			<path id="path36" fill="#FFD10D" d="M500.578,88.852c0-18.854,2.818-34.268,8.445-46.236
				c5.637-11.968,12.925-21.328,21.884-28.083c8.946-6.753,18.993-11.331,30.113-13.723c11.121-2.391,22.166-3.589,33.149-3.589
				h21.232c2.184,4.601,3.088,12.407,3.088,16.563c0,17.878-14.857,24.173-31.782,25.56c-30.097,2.464-32.84,23.796-32.84,40.415
				v70.324c0,8.446,0.068,15.275,0.224,20.48c0.141,5.214,0.354,9.36,0.649,12.462c0.279,3.376,0.574,8.222,0.864,9.91
				c-17.62,0-30.876-0.38-42.279-8.815c-10.463-7.743-12.748-23.478-12.748-40.371V88.852z"/>
		</g>
	</g>
</g>
</svg>
